<svg width="16" height="16" viewBox="0 0 16 16" fill="none" xmlns="http://www.w3.org/2000/svg">
<path d="M5.04018 8.60433L4.18663 7.75078H5.39374L12.375 7.75078C12.4426 7.75078 12.5 7.69339 12.5 7.62578C12.5 7.55817 12.4426 7.50078 12.375 7.50078L5.39374 7.50078H4.18663L5.04018 6.64723L8.09018 3.59723C8.13867 3.54874 8.13867 3.47157 8.09018 3.42308C8.0417 3.3746 7.96453 3.3746 7.91604 3.42308L3.79729 7.54183C3.7488 7.59032 3.7488 7.66749 3.79729 7.71598L3.45095 8.06232L3.79729 7.71598L7.91604 11.8347L7.5697 12.1811L7.91604 11.8347C7.96453 11.8832 8.0417 11.8832 8.09018 11.8347C8.13867 11.7862 8.13867 11.7028 8.09018 11.6543L5.04018 8.60433Z" stroke="#1E2228"/>
</svg>
