<svg width="32" height="32" viewBox="0 0 32 32" fill="none" xmlns="http://www.w3.org/2000/svg">
<g clip-path="url(#clip0_465_7878)">
<path d="M30.2334 0H1.76627C1.2978 0 0.848507 0.186104 0.517244 0.517371C0.18598 0.848638 -0.00012207 1.29793 -0.00012207 1.76641L-0.00012207 30.2338C-0.00012207 30.7023 0.18598 31.1516 0.517244 31.4829C0.848507 31.8142 1.2978 32.0003 1.76627 32.0003H17.0919V19.6081H12.9218V14.7786H17.0919V11.217C17.0919 7.0837 19.6162 4.83306 23.3035 4.83306C25.0699 4.83306 26.5876 4.96465 27.03 5.0234V9.34279L24.4727 9.34395C22.4676 9.34395 22.0791 10.2968 22.0791 11.6951V14.7785H26.8614L26.2387 19.608H22.0798V32.0003H30.2334C30.7019 32.0003 31.1512 31.8142 31.4825 31.4829C31.8137 31.1516 31.9998 30.7023 31.9998 30.2338V1.76641C31.9998 1.29793 31.8137 0.848638 31.4825 0.517371C31.1512 0.186104 30.7019 0 30.2334 0V0Z" fill="#262626"/>
</g>
<defs>
<clipPath id="clip0_465_7878">
<rect width="32" height="32.0003" fill="white"/>
</clipPath>
</defs>
</svg>
