<svg width="20" height="20" viewBox="0 0 20 20" fill="none" xmlns="http://www.w3.org/2000/svg">
<path d="M16.0245 12.7166L13.9079 12.475C13.3995 12.4166 12.8995 12.5916 12.5412 12.95L11.0079 14.4833C8.64955 13.2833 6.71621 11.3583 5.51621 8.99163L7.05788 7.44997C7.41621 7.09163 7.59121 6.59163 7.53288 6.0833L7.29121 3.9833C7.19121 3.14163 6.48288 2.5083 5.63288 2.5083H4.19121C3.24955 2.5083 2.46621 3.29163 2.52455 4.2333C2.96621 11.35 8.65788 17.0333 15.7662 17.475C16.7079 17.5333 17.4912 16.75 17.4912 15.8083V14.3666C17.4995 13.525 16.8662 12.8166 16.0245 12.7166Z" fill="#8C8C8C"/>
</svg>
