<svg width="20" height="20" viewBox="0 0 20 20" fill="none" xmlns="http://www.w3.org/2000/svg">
<path d="M14.9997 5.00008H13.333C13.333 3.15841 11.8413 1.66675 9.99967 1.66675C8.15801 1.66675 6.66634 3.15841 6.66634 5.00008H4.99967C4.08301 5.00008 3.33301 5.75008 3.33301 6.66675V16.6667C3.33301 17.5834 4.08301 18.3334 4.99967 18.3334H14.9997C15.9163 18.3334 16.6663 17.5834 16.6663 16.6667V6.66675C16.6663 5.75008 15.9163 5.00008 14.9997 5.00008ZM9.99967 3.33341C10.9163 3.33341 11.6663 4.08341 11.6663 5.00008H8.33301C8.33301 4.08341 9.08301 3.33341 9.99967 3.33341ZM14.9997 16.6667H4.99967V6.66675H6.66634V8.33342C6.66634 8.79175 7.04134 9.16675 7.49967 9.16675C7.95801 9.16675 8.33301 8.79175 8.33301 8.33342V6.66675H11.6663V8.33342C11.6663 8.79175 12.0413 9.16675 12.4997 9.16675C12.958 9.16675 13.333 8.79175 13.333 8.33342V6.66675H14.9997V16.6667Z" fill="#8C8C8C"/>
</svg>
