<svg width="16" height="16" viewBox="0 0 16 16" fill="none" xmlns="http://www.w3.org/2000/svg">
<path d="M10.9598 8.60433L11.8133 7.75078H10.6062L3.62495 7.75078C3.55734 7.75078 3.49995 7.69339 3.49995 7.62578C3.49995 7.55817 3.55734 7.50078 3.62495 7.50078L10.6062 7.50078H11.8133L10.9598 6.64723L7.90975 3.59723C7.86127 3.54874 7.86127 3.47157 7.90975 3.42308C7.95824 3.3746 8.03541 3.3746 8.0839 3.42308L12.2026 7.54183C12.2511 7.59032 12.2511 7.66749 12.2026 7.71598L12.549 8.06232L12.2026 7.71598L8.0839 11.8347L8.43024 12.1811L8.0839 11.8347C8.03541 11.8832 7.95824 11.8832 7.90975 11.8347C7.86127 11.7862 7.86127 11.7028 7.90975 11.6543L10.9598 8.60433Z" stroke="white"/>
</svg>
