<svg width="28" height="28" viewBox="0 0 28 28" fill="none" xmlns="http://www.w3.org/2000/svg">
<path d="M21.3501 6.66163C20.8951 6.20663 20.1601 6.20663 19.7051 6.66163L14.0001 12.355L8.29509 6.64997C7.84009 6.19497 7.10509 6.19497 6.65009 6.64997C6.19509 7.10497 6.19509 7.83997 6.65009 8.29497L12.3551 14L6.65009 19.705C6.19509 20.16 6.19509 20.895 6.65009 21.35C7.10509 21.805 7.84009 21.805 8.29509 21.35L14.0001 15.645L19.7051 21.35C20.1601 21.805 20.8951 21.805 21.3501 21.35C21.8051 20.895 21.8051 20.16 21.3501 19.705L15.6451 14L21.3501 8.29497C21.7934 7.85163 21.7934 7.10497 21.3501 6.66163Z" fill="#262626"/>
</svg>
