<svg width="20" height="20" viewBox="0 0 20 20" fill="none" xmlns="http://www.w3.org/2000/svg">
<path d="M17.3049 0H2.69506C1.20665 0 0 1.2066 0 2.69506V17.305C0 18.7934 1.2066 20.0001 2.69506 20.0001H9.90056L9.91284 12.8531H8.05607C7.81477 12.8531 7.61892 12.658 7.61799 12.4167L7.60909 10.1129C7.60816 9.87032 7.80459 9.67315 8.04721 9.67315H9.90061V7.44714C9.90061 4.86388 11.4783 3.45727 13.7827 3.45727H15.6737C15.9157 3.45727 16.1118 3.65341 16.1118 3.8954V5.83793C16.1118 6.07982 15.9158 6.27592 15.674 6.27606L14.5135 6.2766C13.2603 6.2766 13.0176 6.87212 13.0176 7.74608V9.6732H15.7714C16.0338 9.6732 16.2373 9.90232 16.2064 10.1629L15.9334 12.4667C15.9072 12.6871 15.7203 12.8532 15.4983 12.8532H13.0299L13.0176 20.0001H17.305C18.7934 20.0001 20 18.7935 20 17.3051V2.69506C20 1.2066 18.7934 0 17.3049 0Z" fill="#0E4EAD"/>
</svg>
