<svg width="24" height="24" viewBox="0 0 24 24" fill="none" xmlns="http://www.w3.org/2000/svg">
<path d="M8.0619 21.983C6.87132 21.983 5.67639 22.0242 4.48581 21.9784C3.07719 21.9188 2 20.6766 2 19.1962C2 14.4155 2.00872 9.63491 2 4.84969C2 3.21337 3.21674 2.07207 4.61665 2.03082C6.08197 1.98957 7.55165 2.02165 9.02134 2.02165C9.0475 2.02165 9.08239 2.0079 9.09547 2.05374C9.08675 2.13624 9.00825 2.14541 8.96028 2.17749C8.09679 2.70918 7.30743 3.3463 6.64455 4.13466C5.54992 5.43639 4.79109 6.93062 4.53379 8.66778C4.08023 11.7342 4.9917 14.3376 7.05449 16.5102C7.42082 16.8998 7.46879 17.2023 7.1766 17.7248C6.82335 18.3528 6.28694 18.7791 5.71564 19.1687C5.65458 19.2053 5.59353 19.2512 5.53247 19.2924C5.44089 19.3749 5.49758 19.4162 5.57608 19.4528C5.59353 19.4941 5.61533 19.5308 5.6415 19.5674C6.14302 20.0349 6.61838 20.5346 7.11118 21.0112C7.34232 21.2358 7.57346 21.4696 7.79587 21.7034C7.88745 21.7904 8.04009 21.8179 8.0619 21.983Z" fill="#0E4EAD"/>
<path d="M8.06199 21.982C8.04018 21.8215 7.88754 21.794 7.79596 21.6978C7.57355 21.4594 7.34241 21.2303 7.11127 21.0057C6.61847 20.529 6.14311 20.0294 5.64159 19.5618C5.61542 19.5252 5.59362 19.4885 5.57617 19.4473C6.68825 19.6764 7.77416 19.5206 8.84262 19.1768C9.20459 19.0622 9.56656 18.9477 9.93289 18.8514C10.1815 18.7826 10.4431 18.7964 10.683 18.8881C13.4479 19.8873 16.178 19.7956 18.8644 18.5581C19.959 18.0493 20.9577 17.3342 21.8038 16.4405C21.8474 16.3946 21.8779 16.3259 21.9564 16.3213C21.9956 16.3855 21.9738 16.4542 21.9738 16.523V19.2043C21.9826 20.7352 20.8138 21.982 19.3572 21.9957H19.3354C17.7654 22.0049 16.1954 21.9957 14.6254 21.9957H8.32365C8.23643 21.9865 8.14921 21.982 8.06199 21.982Z" fill="#0E4EAD"/>
<path d="M8.74232 11.7253C9.40085 11.7253 10.0201 11.7207 10.635 11.7253C10.9796 11.7299 11.1671 11.8812 11.202 12.1699C11.2412 12.532 11.0406 12.775 10.6656 12.7795C9.95906 12.7887 9.25693 12.7841 8.55044 12.7841C8.34546 12.7841 8.14485 12.7933 7.93988 12.7795C7.68694 12.7658 7.43836 12.7108 7.31625 12.4358C7.19414 12.1608 7.28136 11.9133 7.44708 11.6887C8.11869 10.7903 8.79466 9.88733 9.47062 8.98896C9.50987 8.93396 9.54912 8.87896 9.58837 8.82854C9.54476 8.75062 9.48371 8.78728 9.43137 8.7827C8.96038 8.77812 8.48502 8.7827 8.01402 8.77812C7.905 8.77812 7.79597 8.76437 7.6913 8.74145C7.44272 8.68186 7.29008 8.4206 7.34678 8.16392C7.38603 7.98975 7.51686 7.84766 7.68258 7.80641C7.78725 7.77891 7.89627 7.76516 8.0053 7.76516C8.78157 7.76057 9.56221 7.76057 10.3385 7.76516C10.478 7.76057 10.6132 7.77891 10.7484 7.81558C11.045 7.921 11.1714 8.20976 11.0537 8.51227C10.949 8.77353 10.7833 8.99813 10.6176 9.22272C10.0463 9.98817 9.47498 10.749 8.90368 11.5053C8.85571 11.5649 8.8121 11.6245 8.74232 11.7253Z" fill="#0E4EAD"/>
<path d="M13.8012 9.31398C13.9059 9.17189 14.0149 9.03897 14.1937 9.0023C14.5382 8.92897 14.8609 9.16273 14.8653 9.52941C14.8784 10.4461 14.874 11.3628 14.8653 12.2795C14.8653 12.5179 14.717 12.7287 14.5033 12.7975C14.2853 12.8846 14.0367 12.8158 13.8928 12.6187C13.8186 12.5225 13.7881 12.5041 13.6834 12.5912C13.2866 12.9304 12.8374 12.99 12.3533 12.825C11.577 12.5591 11.2587 11.922 11.1715 11.1474C11.0799 10.3086 11.3459 9.59358 12.0611 9.15356C12.6542 8.78229 13.2561 8.81438 13.8012 9.31398ZM12.2574 10.987C12.2661 11.1886 12.3271 11.3812 12.4405 11.5416C12.676 11.8716 13.1252 11.9403 13.4436 11.6928C13.4959 11.6516 13.5439 11.6012 13.5875 11.5416C13.8317 11.1932 13.8317 10.6203 13.5875 10.2719C13.4654 10.0932 13.2735 9.98776 13.0685 9.98318C12.5888 9.95109 12.253 10.3407 12.2574 10.987ZM16.8234 11.0145C16.7885 9.83651 17.5255 8.95647 18.5722 8.92438C19.6843 8.88771 20.4954 9.6715 20.5303 10.8174C20.5652 11.977 19.8893 12.7975 18.847 12.9075C17.7087 13.0266 16.806 12.1604 16.8234 11.0145ZM17.918 10.9045C17.9093 11.1336 17.9747 11.3582 18.1056 11.5462C18.3454 11.8762 18.7946 11.9403 19.1086 11.6837C19.1566 11.647 19.1958 11.6012 19.2351 11.5553C19.488 11.207 19.488 10.6203 19.2395 10.2719C19.1173 10.0978 18.9255 9.98776 18.7205 9.98318C18.2495 9.95568 17.918 10.3315 17.918 10.9045ZM16.4396 10.1024C16.4396 10.8128 16.444 11.5232 16.4396 12.2337C16.444 12.5591 16.1998 12.8296 15.8901 12.8387C15.8378 12.8387 15.7811 12.8341 15.7288 12.8204C15.5107 12.7608 15.345 12.5179 15.345 12.2291V8.5852C15.345 8.36977 15.3406 8.15893 15.345 7.9435C15.3494 7.59057 15.5631 7.3614 15.8858 7.3614C16.2172 7.35681 16.4396 7.58599 16.4396 7.95267C16.444 8.6677 16.4396 9.38732 16.4396 10.1024Z" fill="#0E4EAD"/>
<path d="M4.85667 2.28418H19.1654C20.5814 2.28418 21.7501 3.49419 21.7501 5.01348V18.9016C21.7501 20.4209 20.5814 21.6309 19.1654 21.6309H4.85667C3.44069 21.6309 2.27197 20.4209 2.27197 18.9016V5.01348C2.27197 3.49419 3.44069 2.28418 4.85667 2.28418Z" stroke="#0E4EAD" stroke-width="0.5" stroke-miterlimit="10"/>
</svg>
