<svg width="24" height="659" viewBox="0 0 24 659" fill="none" xmlns="http://www.w3.org/2000/svg">
<g opacity="0.4">
<path d="M12.5 301.177L12.5 0L11.5 -3.27832e-08L11.5 301.177L12.5 301.177Z" fill="url(#paint0_linear_387_23590)"/>
<path d="M18.0876 329.48C18.0959 330.696 17.7425 331.887 17.0722 332.902C16.402 333.916 15.4452 334.708 14.3236 335.178C13.202 335.647 11.9662 335.772 10.7734 335.537C9.58061 335.301 8.48464 334.717 7.62497 333.857C6.7653 332.997 6.18072 331.901 5.94557 330.707C5.71043 329.514 5.83533 328.278 6.30441 327.156C6.77349 326.034 7.5656 325.077 8.57991 324.407C9.59422 323.736 10.7849 323.383 12.0006 323.391C13.615 323.391 15.1633 324.033 16.3048 325.175C17.4464 326.316 18.0876 327.865 18.0876 329.48ZM7.71875 329.48C7.71875 330.594 8.16109 331.662 8.94835 332.449C9.73562 333.237 10.8033 333.679 11.9167 333.679C13.03 333.679 14.0978 333.237 14.8851 332.449C15.6723 331.662 16.1146 330.594 16.1146 329.48C16.1146 328.366 15.6723 327.298 14.8851 326.511C14.0978 325.723 13.03 325.281 11.9167 325.281C10.8033 325.281 9.73562 325.723 8.94835 326.511C8.16109 327.298 7.71875 328.366 7.71875 329.48Z" fill="#999FAB"/>
<path d="M18.0876 329.48C18.0959 330.696 17.7425 331.887 17.0722 332.902C16.402 333.916 15.4452 334.708 14.3236 335.178C13.202 335.647 11.9662 335.772 10.7734 335.537C9.58061 335.301 8.48464 334.717 7.62497 333.857C6.7653 332.997 6.18072 331.901 5.94557 330.707C5.71043 329.514 5.83533 328.278 6.30441 327.156C6.77349 326.034 7.5656 325.077 8.57991 324.407C9.59422 323.736 10.7849 323.383 12.0006 323.391C13.615 323.391 15.1633 324.033 16.3048 325.175C17.4464 326.316 18.0876 327.865 18.0876 329.48ZM7.71875 329.48C7.71875 330.594 8.16109 331.662 8.94835 332.449C9.73562 333.237 10.8033 333.679 11.9167 333.679C13.03 333.679 14.0978 333.237 14.8851 332.449C15.6723 331.662 16.1146 330.594 16.1146 329.48C16.1146 328.366 15.6723 327.298 14.8851 326.511C14.0978 325.723 13.03 325.281 11.9167 325.281C10.8033 325.281 9.73562 325.723 8.94835 326.511C8.16109 327.298 7.71875 328.366 7.71875 329.48Z" fill="#999FAB"/>
<mask id="path-4-inside-1_387_23590" fill="white">
<path d="M23.8801 329.479C23.8801 331.829 23.1833 334.127 21.8779 336.081C20.5725 338.035 18.7171 339.558 16.5463 340.458C14.3755 341.357 11.9868 341.593 9.68226 341.134C7.37775 340.676 5.26092 339.544 3.59946 337.882C1.938 336.22 0.806549 334.103 0.348153 331.797C-0.110243 329.492 0.125014 327.103 1.02419 324.931C1.92337 322.76 3.44606 320.904 5.39973 319.598C7.3534 318.293 9.6503 317.596 12 317.596C15.1508 317.596 18.1725 318.848 20.4005 321.076C22.6284 323.305 23.8801 326.327 23.8801 329.479ZM0.707566 329.479C0.699257 331.715 1.35451 333.903 2.59027 335.766C3.82603 337.629 5.58674 339.083 7.64941 339.945C9.71208 340.806 11.9839 341.036 14.1772 340.605C16.3705 340.174 18.3865 339.101 19.97 337.523C21.5534 335.945 22.6331 333.932 23.0722 331.74C23.5113 329.548 23.2902 327.275 22.4367 325.208C21.5833 323.142 20.1359 321.375 18.278 320.132C16.4201 318.889 14.2352 318.226 12 318.226C9.01567 318.237 6.15611 319.424 4.04195 321.531C1.9278 323.638 0.729652 326.494 0.707566 329.479Z"/>
</mask>
<path d="M23.8801 329.479H24.8801H23.8801ZM0.707566 329.479L-0.292413 329.472L-0.292427 329.475L0.707566 329.479ZM12 318.226L12 317.226L11.9963 317.226L12 318.226ZM22.8801 329.479C22.8801 331.632 22.2419 333.736 21.0464 335.526L22.7094 336.637C24.1247 334.518 24.8801 332.027 24.8801 329.479H22.8801ZM21.0464 335.526C19.8508 337.315 18.1515 338.71 16.1635 339.534L16.929 341.382C19.2826 340.407 21.2942 338.755 22.7094 336.637L21.0464 335.526ZM16.1635 339.534C14.1754 340.358 11.9879 340.573 9.8774 340.153L9.48712 342.115C11.9857 342.612 14.5755 342.357 16.929 341.382L16.1635 339.534ZM9.8774 340.153C7.76693 339.733 5.82829 338.697 4.30667 337.175L2.89226 338.589C4.69355 340.391 6.98857 341.618 9.48712 342.115L9.8774 340.153ZM4.30667 337.175C2.78504 335.653 1.74878 333.714 1.32895 331.602L-0.632642 331.992C-0.135683 334.492 1.09096 336.787 2.89226 338.589L4.30667 337.175ZM1.32895 331.602C0.909116 329.491 1.12458 327.303 1.94811 325.314L0.100273 324.549C-0.874556 326.903 -1.1296 329.493 -0.632642 331.992L1.32895 331.602ZM1.94811 325.314C2.77163 323.325 4.16619 321.626 5.9554 320.43L4.84405 318.767C2.72592 320.183 1.0751 322.195 0.100273 324.549L1.94811 325.314ZM5.9554 320.43C7.74461 319.234 9.84814 318.596 12 318.596V316.596C9.45247 316.596 6.96218 317.351 4.84405 318.767L5.9554 320.43ZM12 318.596C14.8855 318.596 17.6528 319.742 19.6933 321.783L21.1077 320.369C18.6922 317.953 15.4161 316.596 12 316.596V318.596ZM19.6933 321.783C21.7337 323.824 22.8801 326.593 22.8801 329.479H24.8801C24.8801 326.062 23.5231 322.785 21.1077 320.369L19.6933 321.783ZM-0.292427 329.475C-0.301472 331.909 0.411777 334.291 1.75693 336.319L3.42362 335.213C2.29725 333.515 1.69999 331.521 1.70756 329.483L-0.292427 329.475ZM1.75693 336.319C3.10209 338.347 5.0187 339.93 7.26406 340.867L8.03476 339.022C6.15478 338.237 4.54998 336.911 3.42362 335.213L1.75693 336.319ZM7.26406 340.867C9.50942 341.805 11.9825 342.055 14.3701 341.586L13.9843 339.623C11.9853 340.016 9.91473 339.807 8.03476 339.022L7.26406 340.867ZM14.3701 341.586C16.7576 341.117 18.9522 339.949 20.6758 338.231L19.2641 336.815C17.8208 338.253 15.9833 339.23 13.9843 339.623L14.3701 341.586ZM20.6758 338.231C22.3995 336.514 23.5747 334.323 24.0527 331.937L22.0917 331.544C21.6914 333.542 20.7073 335.376 19.2641 336.815L20.6758 338.231ZM24.0527 331.937C24.5307 329.55 24.29 327.076 23.361 324.826L21.5124 325.59C22.2903 327.473 22.4919 329.546 22.0917 331.544L24.0527 331.937ZM23.361 324.826C22.432 322.577 20.8565 320.654 18.8341 319.301L17.7219 320.963C19.4153 322.096 20.7345 323.706 21.5124 325.59L23.361 324.826ZM18.8341 319.301C16.8116 317.948 14.4332 317.226 12 317.226L12 319.226C14.0372 319.226 16.0285 319.83 17.7219 320.963L18.8341 319.301ZM11.9963 317.226C8.7486 317.237 5.63672 318.53 3.33607 320.823L4.74784 322.24C6.67549 320.319 9.28273 319.236 12.0036 319.226L11.9963 317.226ZM3.33607 320.823C1.03542 323.116 -0.268373 326.223 -0.292406 329.472L1.70754 329.486C1.72768 326.765 2.82018 324.161 4.74784 322.24L3.33607 320.823Z" fill="#999FAB" mask="url(#path-4-inside-1_387_23590)"/>
<path d="M12.0005 322.174C13.4553 322.174 14.8773 322.606 16.0863 323.415C17.2953 324.225 18.2368 325.375 18.7916 326.72C19.3463 328.065 19.4894 329.545 19.2025 330.971C18.9156 332.398 18.2117 333.707 17.1801 334.733C16.1485 335.759 14.8356 336.456 13.4078 336.735C11.98 337.013 10.5016 336.862 9.16 336.299C7.81838 335.737 6.67395 334.788 5.8718 333.574C5.06964 332.36 4.64586 330.935 4.65417 329.48C4.65416 328.517 4.8445 327.564 5.21421 326.675C5.58391 325.785 6.12568 324.978 6.80841 324.299C7.49113 323.62 8.30135 323.083 9.19241 322.718C10.0835 322.353 11.0378 322.168 12.0005 322.174Z" fill="#999FAB"/>
<mask id="path-7-inside-2_387_23590" fill="white">
<path d="M20.3539 349.426C20.3539 351.087 19.8615 352.71 18.9389 354.091C18.0164 355.472 16.7051 356.549 15.171 357.184C13.6369 357.82 11.9488 357.986 10.3201 357.662C8.69151 357.338 7.19553 356.538 6.02135 355.364C4.84718 354.189 4.04753 352.693 3.72358 351.064C3.39962 349.435 3.56591 347.746 4.20136 346.212C4.83682 344.677 5.91293 343.366 7.29361 342.443C8.67429 341.52 10.2976 341.027 11.9581 341.027C14.1848 341.027 16.3203 341.912 17.8948 343.487C19.4693 345.062 20.3539 347.198 20.3539 349.426ZM4.23397 349.426C4.23397 350.962 4.68938 352.464 5.54274 353.741C6.39609 355.019 7.60902 356.015 9.02809 356.602C10.4472 357.19 12.0087 357.344 13.5151 357.045C15.0216 356.745 16.4054 356.005 17.4915 354.919C18.5776 353.832 19.3173 352.448 19.6169 350.941C19.9166 349.434 19.7628 347.872 19.175 346.453C18.5872 345.033 17.5918 343.82 16.3146 342.966C15.0375 342.113 13.536 341.657 12 341.657C9.94034 341.657 7.96498 342.476 6.50855 343.933C5.05213 345.389 4.23397 347.365 4.23397 349.426Z"/>
</mask>
<path d="M20.3539 349.426H21.3539H20.3539ZM4.23397 349.426H5.23397H4.23397ZM12 341.657V342.657V341.657ZM19.3539 349.426C19.3539 350.889 18.9201 352.319 18.1074 353.536L19.7705 354.647C20.8028 353.101 21.3539 351.284 21.3539 349.426H19.3539ZM18.1074 353.536C17.2947 354.752 16.1396 355.701 14.7882 356.261L15.5538 358.108C17.2707 357.397 18.7381 356.192 19.7705 354.647L18.1074 353.536ZM14.7882 356.261C13.4369 356.82 11.9499 356.967 10.5153 356.682L10.125 358.643C11.9477 359.006 13.8369 358.82 15.5538 358.108L14.7882 356.261ZM10.5153 356.682C9.08069 356.396 7.7629 355.692 6.72856 354.657L5.31415 356.071C6.62816 357.385 8.30234 358.28 10.125 358.643L10.5153 356.682ZM6.72856 354.657C5.69421 353.622 4.98976 352.304 4.70437 350.869L2.74278 351.259C3.1053 353.082 4.00015 354.757 5.31415 356.071L6.72856 354.657ZM4.70437 350.869C4.41899 349.434 4.56547 347.946 5.12528 346.594L3.27745 345.829C2.56634 347.546 2.38026 349.436 2.74278 351.259L4.70437 350.869ZM5.12528 346.594C5.68508 345.242 6.63306 344.087 7.84929 343.274L6.73793 341.611C5.1928 342.644 3.98856 344.112 3.27745 345.829L5.12528 346.594ZM7.84929 343.274C9.06552 342.461 10.4954 342.027 11.9581 342.027V340.027C10.0997 340.027 8.28306 340.579 6.73793 341.611L7.84929 343.274ZM11.9581 342.027C13.9195 342.027 15.8006 342.807 17.1876 344.194L18.602 342.78C16.84 341.018 14.4501 340.027 11.9581 340.027V342.027ZM17.1876 344.194C18.5746 345.582 19.3539 347.463 19.3539 349.426H21.3539C21.3539 346.933 20.364 344.543 18.602 342.78L17.1876 344.194ZM3.23397 349.426C3.23397 351.16 3.74798 352.855 4.71119 354.297L6.37428 353.186C5.63079 352.073 5.23397 350.764 5.23397 349.426H3.23397ZM4.71119 354.297C5.6744 355.739 7.04349 356.863 8.64531 357.526L9.41086 355.679C8.17454 355.166 7.11778 354.299 6.37428 353.186L4.71119 354.297ZM8.64531 357.526C10.2472 358.19 12.0098 358.364 13.7103 358.025L13.32 356.064C12.0075 356.325 10.6472 356.191 9.41086 355.679L8.64531 357.526ZM13.7103 358.025C15.4108 357.687 16.9728 356.852 18.1987 355.626L16.7843 354.212C15.8381 355.158 14.6324 355.803 13.32 356.064L13.7103 358.025ZM18.1987 355.626C19.4247 354.399 20.2595 352.837 20.5977 351.136L18.6361 350.746C18.375 352.059 17.7306 353.265 16.7843 354.212L18.1987 355.626ZM20.5977 351.136C20.9359 349.435 20.7624 347.672 20.0989 346.07L18.2511 346.835C18.7632 348.072 18.8972 349.433 18.6361 350.746L20.5977 351.136ZM20.0989 346.07C19.4355 344.468 18.3119 343.099 16.8703 342.135L15.759 343.798C16.8717 344.541 17.739 345.599 18.2511 346.835L20.0989 346.07ZM16.8703 342.135C15.4287 341.172 13.7339 340.657 12 340.657V342.657C13.3382 342.657 14.6463 343.054 15.759 343.798L16.8703 342.135ZM12 340.657C9.67503 340.657 7.44529 341.581 5.80135 343.225L7.21576 344.64C8.48468 343.37 10.2056 342.657 12 342.657V340.657ZM5.80135 343.225C4.1574 344.87 3.23397 347.1 3.23397 349.426H5.23397C5.23397 347.63 5.94685 345.909 7.21576 344.64L5.80135 343.225Z" fill="#999FAB" mask="url(#path-7-inside-2_387_23590)"/>
<path d="M12.0003 344.303C13.0132 344.303 14.0034 344.603 14.8456 345.166C15.6878 345.729 16.3443 346.529 16.7319 347.465C17.1195 348.401 17.221 349.431 17.0234 350.425C16.8257 351.419 16.338 352.332 15.6217 353.048C14.9055 353.765 13.9929 354.253 12.9994 354.45C12.006 354.648 10.9762 354.546 10.0404 354.159C9.10458 353.771 8.30473 353.114 7.74198 352.272C7.17923 351.429 6.87884 350.439 6.87884 349.426C6.87324 348.751 7.00194 348.083 7.25734 347.459C7.51273 346.835 7.88976 346.268 8.36645 345.791C8.84314 345.314 9.40991 344.937 10.0338 344.681C10.6577 344.426 11.3262 344.297 12.0003 344.303Z" fill="#999FAB"/>
<mask id="path-10-inside-3_387_23590" fill="white">
<path d="M20.3539 309.576C20.3539 311.237 19.8615 312.861 18.9389 314.242C18.0164 315.623 16.7051 316.699 15.171 317.335C13.6369 317.97 11.9488 318.137 10.3201 317.813C8.69151 317.489 7.19553 316.689 6.02135 315.514C4.84718 314.34 4.04753 312.843 3.72358 311.214C3.39962 309.585 3.56591 307.897 4.20136 306.362C4.83682 304.827 5.91293 303.516 7.29361 302.593C8.67429 301.67 10.2976 301.178 11.9581 301.178C14.1848 301.178 16.3203 302.063 17.8948 303.637C19.4693 305.212 20.3539 307.349 20.3539 309.576ZM4.23397 309.576C4.23397 311.112 4.68938 312.614 5.54274 313.892C6.39609 315.169 7.60902 316.165 9.02809 316.753C10.4472 317.341 12.0087 317.495 13.5151 317.195C15.0216 316.895 16.4054 316.155 17.4915 315.069C18.5776 313.982 19.3173 312.598 19.6169 311.091C19.9166 309.584 19.7628 308.023 19.175 306.603C18.5872 305.184 17.5918 303.97 16.3146 303.117C15.0375 302.263 13.536 301.808 12 301.808C9.94034 301.808 7.96498 302.626 6.50855 304.083C5.05213 305.54 4.23397 307.516 4.23397 309.576Z"/>
</mask>
<path d="M20.3539 309.576H19.3539H20.3539ZM4.23397 309.576H5.23397H4.23397ZM12 301.808V302.808V301.808ZM19.3539 309.576C19.3539 311.039 18.9201 312.47 18.1074 313.686L19.7705 314.797C20.8028 313.252 21.3539 311.435 21.3539 309.576H19.3539ZM18.1074 313.686C17.2947 314.903 16.1396 315.851 14.7882 316.411L15.5538 318.259C17.2707 317.547 18.7381 316.343 19.7705 314.797L18.1074 313.686ZM14.7882 316.411C13.4369 316.971 11.9499 317.117 10.5153 316.832L10.125 318.793C11.9477 319.156 13.8369 318.97 15.5538 318.259L14.7882 316.411ZM10.5153 316.832C9.08069 316.546 7.7629 315.842 6.72856 314.807L5.31415 316.221C6.62816 317.536 8.30234 318.431 10.125 318.793L10.5153 316.832ZM6.72856 314.807C5.69421 313.773 4.98976 312.454 4.70437 311.019L2.74278 311.409C3.1053 313.232 4.00015 314.907 5.31415 316.221L6.72856 314.807ZM4.70437 311.019C4.41899 309.584 4.56547 308.097 5.12528 306.745L3.27745 305.979C2.56634 307.697 2.38026 309.586 2.74278 311.409L4.70437 311.019ZM5.12528 306.745C5.68509 305.393 6.63306 304.237 7.84929 303.424L6.73793 301.762C5.1928 302.794 3.98856 304.262 3.27745 305.979L5.12528 306.745ZM7.84929 303.424C9.06551 302.612 10.4954 302.178 11.9581 302.178V300.178C10.0997 300.178 8.28308 300.729 6.73793 301.762L7.84929 303.424ZM11.9581 302.178C13.9195 302.178 15.8006 302.957 17.1876 304.344L18.602 302.93C16.84 301.168 14.4501 300.178 11.9581 300.178V302.178ZM17.1876 304.344C18.5746 305.732 19.3539 307.614 19.3539 309.576H21.3539C21.3539 307.083 20.364 304.693 18.602 302.93L17.1876 304.344ZM3.23397 309.576C3.23397 311.31 3.74798 313.005 4.71119 314.447L6.37428 313.336C5.63079 312.223 5.23397 310.915 5.23397 309.576H3.23397ZM4.71119 314.447C5.6744 315.889 7.0435 317.013 8.64531 317.677L9.41086 315.829C8.17453 315.317 7.11777 314.449 6.37428 313.336L4.71119 314.447ZM8.64531 317.677C10.2471 318.34 12.0098 318.514 13.7103 318.176L13.32 316.214C12.0076 316.475 10.6472 316.341 9.41086 315.829L8.64531 317.677ZM13.7103 318.176C15.4108 317.837 16.9728 317.002 18.1987 315.776L16.7843 314.362C15.8381 315.308 14.6324 315.953 13.32 316.214L13.7103 318.176ZM18.1987 315.776C19.4247 314.55 20.2595 312.987 20.5977 311.286L18.6361 310.896C18.375 312.209 17.7306 313.415 16.7843 314.362L18.1987 315.776ZM20.5977 311.286C20.9359 309.586 20.7624 307.823 20.0989 306.221L18.2511 306.986C18.7632 308.222 18.8972 309.583 18.6361 310.896L20.5977 311.286ZM20.0989 306.221C19.4355 304.618 18.3119 303.249 16.8703 302.285L15.759 303.948C16.8717 304.692 17.739 305.749 18.2511 306.986L20.0989 306.221ZM16.8703 302.285C15.4287 301.322 13.7339 300.808 12 300.808V302.808C13.3382 302.808 14.6463 303.205 15.759 303.948L16.8703 302.285ZM12 300.808C9.67503 300.808 7.44529 301.731 5.80135 303.376L7.21576 304.79C8.48468 303.521 10.2056 302.808 12 302.808V300.808ZM5.80135 303.376C4.1574 305.02 3.23397 307.25 3.23397 309.576H5.23397C5.23397 307.781 5.94685 306.059 7.21576 304.79L5.80135 303.376Z" fill="#999FAB" mask="url(#path-10-inside-3_387_23590)"/>
<path d="M12.0001 304.453C13.013 304.453 14.0032 304.754 14.8454 305.317C15.6877 305.879 16.3441 306.679 16.7317 307.616C17.1194 308.552 17.2208 309.582 17.0232 310.575C16.8256 311.569 16.3378 312.482 15.6215 313.198C14.9053 313.915 13.9927 314.403 12.9992 314.6C12.0058 314.798 10.976 314.697 10.0402 314.309C9.1044 313.921 8.30455 313.265 7.7418 312.422C7.17905 311.58 6.87866 310.589 6.87866 309.576C6.87866 308.217 7.41824 306.914 8.3787 305.954C9.33916 304.993 10.6418 304.453 12.0001 304.453Z" fill="#999FAB"/>
<path d="M12.5 658.999L12.5 357.822L11.5 357.822L11.5 658.999L12.5 658.999Z" fill="url(#paint1_linear_387_23590)"/>
</g>
<defs>
<linearGradient id="paint0_linear_387_23590" x1="12.5" y1="301.177" x2="12.5" y2="0" gradientUnits="userSpaceOnUse">
<stop stop-color="#999FAB"/>
<stop offset="1" stop-color="#686E79" stop-opacity="0"/>
</linearGradient>
<linearGradient id="paint1_linear_387_23590" x1="12.5" y1="658.999" x2="12.5" y2="357.822" gradientUnits="userSpaceOnUse">
<stop stop-color="#686E79" stop-opacity="0"/>
<stop offset="1" stop-color="#999FAB"/>
</linearGradient>
</defs>
</svg>
