<svg width="675" height="652" viewBox="0 0 675 652" fill="none" xmlns="http://www.w3.org/2000/svg">
<g opacity="0.5">
<path d="M335 648L335 333" stroke="url(#paint0_linear_387_23602)"/>
<path d="M335 311L335 -2.02656e-06" stroke="url(#paint1_linear_387_23602)"/>
<path d="M0 322C3.97406 322 218.323 322 325 322" stroke="url(#paint2_linear_387_23602)"/>
<path d="M670 322C666.026 322 451.677 322 345 322" stroke="url(#paint3_linear_387_23602)"/>
<circle cx="335" cy="322" r="5.5" transform="rotate(-180 335 322)" stroke="#686E79"/>
<circle cx="335" cy="330" r="2.5" transform="rotate(-180 335 330)" stroke="#686E79"/>
<circle cx="335" cy="314" r="2.5" transform="rotate(-180 335 314)" stroke="#686E79"/>
<circle cx="327" cy="322" r="2.5" transform="rotate(-180 327 322)" stroke="#686E79"/>
<circle cx="343" cy="322" r="2.5" transform="rotate(-180 343 322)" stroke="#686E79"/>
</g>
<defs>
<linearGradient id="paint0_linear_387_23602" x1="335.5" y1="647.703" x2="335.5" y2="337.683" gradientUnits="userSpaceOnUse">
<stop stop-color="#686E79" stop-opacity="0"/>
<stop offset="1" stop-color="#686E79"/>
</linearGradient>
<linearGradient id="paint1_linear_387_23602" x1="335.5" y1="310.707" x2="335.5" y2="4.62378" gradientUnits="userSpaceOnUse">
<stop stop-color="#686E79"/>
<stop offset="1" stop-color="#686E79" stop-opacity="0"/>
</linearGradient>
<linearGradient id="paint2_linear_387_23602" x1="325" y1="322" x2="0" y2="322" gradientUnits="userSpaceOnUse">
<stop stop-color="#6A707B"/>
<stop offset="1" stop-color="#6A707B" stop-opacity="0"/>
</linearGradient>
<linearGradient id="paint3_linear_387_23602" x1="345" y1="322" x2="670" y2="322" gradientUnits="userSpaceOnUse">
<stop stop-color="#6A707B"/>
<stop offset="1" stop-color="#6A707B" stop-opacity="0"/>
</linearGradient>
</defs>
</svg>
